<mxfile host="app.diagrams.net" modified="2021-08-15T18:02:22.266Z" agent="5.0 (Windows NT 10.0; Win64; x64) AppleWebKit/537.36 (KHTML, like Gecko) Chrome/92.0.4515.131 Safari/537.36" etag="P-kvya1ha10cap5909XY" version="14.9.6" type="github">
  <diagram id="tKXObVT6ODstsICqTzrA" name="Page-1">
    <mxGraphModel dx="1038" dy="579" grid="1" gridSize="10" guides="1" tooltips="1" connect="1" arrows="1" fold="1" page="1" pageScale="1" pageWidth="827" pageHeight="1169" math="0" shadow="0">
      <root>
        <mxCell id="0" />
        <mxCell id="1" parent="0" />
        <mxCell id="a5vDsfFaX1BTuz3lG2Y1-1" value="" style="group" vertex="1" connectable="0" parent="1">
          <mxGeometry x="18" y="400" width="572" height="359.9999999999998" as="geometry" />
        </mxCell>
        <mxCell id="a5vDsfFaX1BTuz3lG2Y1-2" value="" style="shape=line;html=1;strokeWidth=6;rotation=0;" vertex="1" parent="a5vDsfFaX1BTuz3lG2Y1-1">
          <mxGeometry x="62" width="500" height="10" as="geometry" />
        </mxCell>
        <mxCell id="a5vDsfFaX1BTuz3lG2Y1-3" value="" style="endArrow=classic;html=1;" edge="1" parent="a5vDsfFaX1BTuz3lG2Y1-1">
          <mxGeometry x="17" y="-93" width="50" height="50" as="geometry">
            <mxPoint x="75" y="8" as="sourcePoint" />
            <mxPoint x="75" y="25" as="targetPoint" />
          </mxGeometry>
        </mxCell>
        <mxCell id="a5vDsfFaX1BTuz3lG2Y1-4" value="" style="endArrow=classic;html=1;" edge="1" parent="a5vDsfFaX1BTuz3lG2Y1-1">
          <mxGeometry x="265.75" y="-91" width="50" height="50" as="geometry">
            <mxPoint x="323.75" y="10" as="sourcePoint" />
            <mxPoint x="323.75" y="27" as="targetPoint" />
          </mxGeometry>
        </mxCell>
        <mxCell id="a5vDsfFaX1BTuz3lG2Y1-5" value="" style="endArrow=classic;html=1;" edge="1" parent="a5vDsfFaX1BTuz3lG2Y1-1">
          <mxGeometry x="362.75" y="-91" width="50" height="50" as="geometry">
            <mxPoint x="420.75" y="10" as="sourcePoint" />
            <mxPoint x="420.75" y="27" as="targetPoint" />
          </mxGeometry>
        </mxCell>
        <mxCell id="a5vDsfFaX1BTuz3lG2Y1-6" value="" style="endArrow=classic;html=1;" edge="1" parent="a5vDsfFaX1BTuz3lG2Y1-1">
          <mxGeometry x="477.25" y="-96" width="50" height="50" as="geometry">
            <mxPoint x="535.25" y="5" as="sourcePoint" />
            <mxPoint x="535.25" y="22" as="targetPoint" />
          </mxGeometry>
        </mxCell>
        <mxCell id="a5vDsfFaX1BTuz3lG2Y1-7" value="See Regular Trip Info" style="ellipse;whiteSpace=wrap;html=1;" vertex="1" parent="a5vDsfFaX1BTuz3lG2Y1-1">
          <mxGeometry x="39.5" y="27" width="72.5" height="40" as="geometry" />
        </mxCell>
        <mxCell id="a5vDsfFaX1BTuz3lG2Y1-8" value="See Regular Trip Info" style="ellipse;whiteSpace=wrap;html=1;" vertex="1" parent="a5vDsfFaX1BTuz3lG2Y1-1">
          <mxGeometry x="288" y="30" width="72.5" height="40" as="geometry" />
        </mxCell>
        <mxCell id="a5vDsfFaX1BTuz3lG2Y1-9" value="Get Notification if Any Urgent Trip" style="ellipse;whiteSpace=wrap;html=1;" vertex="1" parent="a5vDsfFaX1BTuz3lG2Y1-1">
          <mxGeometry x="372" y="27" width="96.5" height="50" as="geometry" />
        </mxCell>
        <mxCell id="a5vDsfFaX1BTuz3lG2Y1-10" value="View Account" style="ellipse;whiteSpace=wrap;html=1;" vertex="1" parent="a5vDsfFaX1BTuz3lG2Y1-1">
          <mxGeometry x="499.5" y="27" width="72.5" height="40" as="geometry" />
        </mxCell>
        <mxCell id="a5vDsfFaX1BTuz3lG2Y1-11" value="" style="endArrow=classic;html=1;" edge="1" parent="a5vDsfFaX1BTuz3lG2Y1-1">
          <mxGeometry x="17.25" y="-34" width="50" height="50" as="geometry">
            <mxPoint x="75.25" y="67" as="sourcePoint" />
            <mxPoint x="75.25" y="84" as="targetPoint" />
          </mxGeometry>
        </mxCell>
        <mxCell id="a5vDsfFaX1BTuz3lG2Y1-12" value="Click On Regular Trip Info" style="ellipse;whiteSpace=wrap;html=1;" vertex="1" parent="a5vDsfFaX1BTuz3lG2Y1-1">
          <mxGeometry x="25" y="83" width="102.5" height="47" as="geometry" />
        </mxCell>
        <mxCell id="a5vDsfFaX1BTuz3lG2Y1-13" value="" style="shape=line;html=1;strokeWidth=6;rotation=0;" vertex="1" parent="a5vDsfFaX1BTuz3lG2Y1-1">
          <mxGeometry x="12" y="146" width="240" height="10" as="geometry" />
        </mxCell>
        <mxCell id="a5vDsfFaX1BTuz3lG2Y1-14" value="" style="endArrow=classic;html=1;" edge="1" parent="a5vDsfFaX1BTuz3lG2Y1-1">
          <mxGeometry x="17.25" y="29" width="50" height="50" as="geometry">
            <mxPoint x="75.25" y="130" as="sourcePoint" />
            <mxPoint x="75.25" y="147" as="targetPoint" />
          </mxGeometry>
        </mxCell>
        <mxCell id="a5vDsfFaX1BTuz3lG2Y1-15" value="" style="endArrow=classic;html=1;" edge="1" parent="a5vDsfFaX1BTuz3lG2Y1-1">
          <mxGeometry x="-36" y="50" width="50" height="50" as="geometry">
            <mxPoint x="22" y="151" as="sourcePoint" />
            <mxPoint x="22" y="168" as="targetPoint" />
          </mxGeometry>
        </mxCell>
        <mxCell id="a5vDsfFaX1BTuz3lG2Y1-16" value="" style="endArrow=classic;html=1;" edge="1" parent="a5vDsfFaX1BTuz3lG2Y1-1">
          <mxGeometry x="17.25" y="52" width="50" height="50" as="geometry">
            <mxPoint x="75.25" y="153" as="sourcePoint" />
            <mxPoint x="75.25" y="170" as="targetPoint" />
          </mxGeometry>
        </mxCell>
        <mxCell id="a5vDsfFaX1BTuz3lG2Y1-17" value="" style="endArrow=classic;html=1;" edge="1" parent="a5vDsfFaX1BTuz3lG2Y1-1">
          <mxGeometry x="62.5" y="52" width="50" height="50" as="geometry">
            <mxPoint x="120.5" y="153" as="sourcePoint" />
            <mxPoint x="120.5" y="170" as="targetPoint" />
          </mxGeometry>
        </mxCell>
        <mxCell id="a5vDsfFaX1BTuz3lG2Y1-18" value="" style="endArrow=classic;html=1;" edge="1" parent="a5vDsfFaX1BTuz3lG2Y1-1">
          <mxGeometry x="123.5" y="52" width="50" height="50" as="geometry">
            <mxPoint x="181.5" y="153" as="sourcePoint" />
            <mxPoint x="181.5" y="170" as="targetPoint" />
          </mxGeometry>
        </mxCell>
        <mxCell id="a5vDsfFaX1BTuz3lG2Y1-19" value="" style="endArrow=classic;html=1;" edge="1" parent="a5vDsfFaX1BTuz3lG2Y1-1">
          <mxGeometry x="185" y="52" width="50" height="50" as="geometry">
            <mxPoint x="243" y="153" as="sourcePoint" />
            <mxPoint x="243" y="170" as="targetPoint" />
          </mxGeometry>
        </mxCell>
        <mxCell id="a5vDsfFaX1BTuz3lG2Y1-20" value="Date" style="ellipse;whiteSpace=wrap;html=1;" vertex="1" parent="a5vDsfFaX1BTuz3lG2Y1-1">
          <mxGeometry y="170" width="42" height="20" as="geometry" />
        </mxCell>
        <mxCell id="a5vDsfFaX1BTuz3lG2Y1-21" value="Time" style="ellipse;whiteSpace=wrap;html=1;" vertex="1" parent="a5vDsfFaX1BTuz3lG2Y1-1">
          <mxGeometry x="47" y="170" width="42" height="20" as="geometry" />
        </mxCell>
        <mxCell id="a5vDsfFaX1BTuz3lG2Y1-22" value="Location" style="ellipse;whiteSpace=wrap;html=1;" vertex="1" parent="a5vDsfFaX1BTuz3lG2Y1-1">
          <mxGeometry x="92" y="170" width="60" height="20" as="geometry" />
        </mxCell>
        <mxCell id="a5vDsfFaX1BTuz3lG2Y1-23" value="Transport No" style="ellipse;whiteSpace=wrap;html=1;" vertex="1" parent="a5vDsfFaX1BTuz3lG2Y1-1">
          <mxGeometry x="152" y="170" width="60" height="40" as="geometry" />
        </mxCell>
        <mxCell id="a5vDsfFaX1BTuz3lG2Y1-24" value="Driver Name" style="ellipse;whiteSpace=wrap;html=1;" vertex="1" parent="a5vDsfFaX1BTuz3lG2Y1-1">
          <mxGeometry x="219.5" y="170" width="50" height="30" as="geometry" />
        </mxCell>
        <mxCell id="a5vDsfFaX1BTuz3lG2Y1-25" value="" style="shape=line;html=1;strokeWidth=6;rotation=0;" vertex="1" parent="a5vDsfFaX1BTuz3lG2Y1-1">
          <mxGeometry x="11.5" y="220" width="252" height="10" as="geometry" />
        </mxCell>
        <mxCell id="a5vDsfFaX1BTuz3lG2Y1-26" value="" style="endArrow=classic;html=1;" edge="1" parent="a5vDsfFaX1BTuz3lG2Y1-1">
          <mxGeometry x="184" y="99" width="50" height="50" as="geometry">
            <mxPoint x="242" y="200" as="sourcePoint" />
            <mxPoint x="242" y="220" as="targetPoint" />
          </mxGeometry>
        </mxCell>
        <mxCell id="a5vDsfFaX1BTuz3lG2Y1-27" value="" style="endArrow=classic;html=1;" edge="1" parent="a5vDsfFaX1BTuz3lG2Y1-1">
          <mxGeometry x="123.5" y="102" width="50" height="50" as="geometry">
            <mxPoint x="182" y="210" as="sourcePoint" />
            <mxPoint x="181.5" y="220" as="targetPoint" />
          </mxGeometry>
        </mxCell>
        <mxCell id="a5vDsfFaX1BTuz3lG2Y1-28" value="" style="endArrow=classic;html=1;entryX=0.431;entryY=0.38;entryDx=0;entryDy=0;entryPerimeter=0;" edge="1" parent="a5vDsfFaX1BTuz3lG2Y1-1" target="a5vDsfFaX1BTuz3lG2Y1-25">
          <mxGeometry x="62.5" y="89" width="50" height="50" as="geometry">
            <mxPoint x="120.5" y="190" as="sourcePoint" />
            <mxPoint x="120.5" y="207" as="targetPoint" />
          </mxGeometry>
        </mxCell>
        <mxCell id="a5vDsfFaX1BTuz3lG2Y1-29" value="" style="endArrow=classic;html=1;" edge="1" parent="a5vDsfFaX1BTuz3lG2Y1-1">
          <mxGeometry x="9.5" y="89" width="50" height="50" as="geometry">
            <mxPoint x="67.5" y="190" as="sourcePoint" />
            <mxPoint x="66" y="222" as="targetPoint" />
          </mxGeometry>
        </mxCell>
        <mxCell id="a5vDsfFaX1BTuz3lG2Y1-30" value="" style="endArrow=classic;html=1;entryX=0.04;entryY=0.22;entryDx=0;entryDy=0;entryPerimeter=0;" edge="1" parent="a5vDsfFaX1BTuz3lG2Y1-1" target="a5vDsfFaX1BTuz3lG2Y1-25">
          <mxGeometry x="-36" y="89" width="50" height="50" as="geometry">
            <mxPoint x="22" y="190" as="sourcePoint" />
            <mxPoint x="22" y="207" as="targetPoint" />
          </mxGeometry>
        </mxCell>
        <mxCell id="a5vDsfFaX1BTuz3lG2Y1-31" value="" style="endArrow=classic;html=1;exitX=0.431;exitY=0.62;exitDx=0;exitDy=0;exitPerimeter=0;" edge="1" parent="a5vDsfFaX1BTuz3lG2Y1-1" source="a5vDsfFaX1BTuz3lG2Y1-25">
          <mxGeometry width="50" height="50" relative="1" as="geometry">
            <mxPoint x="372" y="200" as="sourcePoint" />
            <mxPoint x="120" y="280" as="targetPoint" />
          </mxGeometry>
        </mxCell>
        <mxCell id="a5vDsfFaX1BTuz3lG2Y1-32" value="" style="shape=line;html=1;strokeWidth=6;rotation=0;" vertex="1" parent="a5vDsfFaX1BTuz3lG2Y1-1">
          <mxGeometry x="302" y="90" width="54" height="10" as="geometry" />
        </mxCell>
        <mxCell id="a5vDsfFaX1BTuz3lG2Y1-33" value="" style="endArrow=classic;html=1;" edge="1" parent="a5vDsfFaX1BTuz3lG2Y1-1">
          <mxGeometry x="267.5" y="-28" width="50" height="50" as="geometry">
            <mxPoint x="325.5" y="73" as="sourcePoint" />
            <mxPoint x="325.5" y="90" as="targetPoint" />
          </mxGeometry>
        </mxCell>
        <mxCell id="a5vDsfFaX1BTuz3lG2Y1-34" value="" style="endArrow=classic;html=1;" edge="1" parent="a5vDsfFaX1BTuz3lG2Y1-1">
          <mxGeometry x="244" y="-4" width="50" height="50" as="geometry">
            <mxPoint x="302" y="97" as="sourcePoint" />
            <mxPoint x="302" y="114" as="targetPoint" />
          </mxGeometry>
        </mxCell>
        <mxCell id="a5vDsfFaX1BTuz3lG2Y1-35" value="" style="endArrow=classic;html=1;" edge="1" parent="a5vDsfFaX1BTuz3lG2Y1-1">
          <mxGeometry x="296.5" y="-4" width="50" height="50" as="geometry">
            <mxPoint x="354.5" y="97" as="sourcePoint" />
            <mxPoint x="354.5" y="114" as="targetPoint" />
          </mxGeometry>
        </mxCell>
        <mxCell id="a5vDsfFaX1BTuz3lG2Y1-36" value="Type" style="ellipse;whiteSpace=wrap;html=1;" vertex="1" parent="a5vDsfFaX1BTuz3lG2Y1-1">
          <mxGeometry x="269.5" y="116" width="50" height="30" as="geometry" />
        </mxCell>
        <mxCell id="a5vDsfFaX1BTuz3lG2Y1-37" value="Number" style="ellipse;whiteSpace=wrap;html=1;" vertex="1" parent="a5vDsfFaX1BTuz3lG2Y1-1">
          <mxGeometry x="327" y="116" width="50" height="30" as="geometry" />
        </mxCell>
        <mxCell id="a5vDsfFaX1BTuz3lG2Y1-38" value="" style="shape=line;html=1;strokeWidth=6;rotation=0;" vertex="1" parent="a5vDsfFaX1BTuz3lG2Y1-1">
          <mxGeometry x="297.25" y="160" width="54" height="10" as="geometry" />
        </mxCell>
        <mxCell id="a5vDsfFaX1BTuz3lG2Y1-39" value="" style="endArrow=classic;html=1;" edge="1" parent="a5vDsfFaX1BTuz3lG2Y1-1">
          <mxGeometry x="284" y="45" width="50" height="50" as="geometry">
            <mxPoint x="342" y="146" as="sourcePoint" />
            <mxPoint x="342" y="163" as="targetPoint" />
          </mxGeometry>
        </mxCell>
        <mxCell id="a5vDsfFaX1BTuz3lG2Y1-40" value="" style="endArrow=classic;html=1;" edge="1" parent="a5vDsfFaX1BTuz3lG2Y1-1">
          <mxGeometry x="244" y="45" width="50" height="50" as="geometry">
            <mxPoint x="302" y="146" as="sourcePoint" />
            <mxPoint x="302" y="163" as="targetPoint" />
          </mxGeometry>
        </mxCell>
        <mxCell id="a5vDsfFaX1BTuz3lG2Y1-41" value="" style="endArrow=classic;html=1;exitX=0.451;exitY=0.86;exitDx=0;exitDy=0;exitPerimeter=0;" edge="1" parent="a5vDsfFaX1BTuz3lG2Y1-1" source="a5vDsfFaX1BTuz3lG2Y1-38">
          <mxGeometry width="50" height="50" relative="1" as="geometry">
            <mxPoint x="372" y="190" as="sourcePoint" />
            <mxPoint x="324" y="280" as="targetPoint" />
          </mxGeometry>
        </mxCell>
        <mxCell id="a5vDsfFaX1BTuz3lG2Y1-42" value="" style="endArrow=classic;html=1;" edge="1" parent="a5vDsfFaX1BTuz3lG2Y1-1">
          <mxGeometry x="369.75" y="-25" width="50" height="50" as="geometry">
            <mxPoint x="427.75" y="76" as="sourcePoint" />
            <mxPoint x="427.75" y="93" as="targetPoint" />
          </mxGeometry>
        </mxCell>
        <mxCell id="a5vDsfFaX1BTuz3lG2Y1-43" value="" style="shape=line;html=1;strokeWidth=6;rotation=0;" vertex="1" parent="a5vDsfFaX1BTuz3lG2Y1-1">
          <mxGeometry x="405.25" y="90" width="54" height="10" as="geometry" />
        </mxCell>
        <mxCell id="a5vDsfFaX1BTuz3lG2Y1-44" value="" style="endArrow=classic;html=1;" edge="1" parent="a5vDsfFaX1BTuz3lG2Y1-1">
          <mxGeometry x="348.25" y="-4" width="50" height="50" as="geometry">
            <mxPoint x="406.25" y="97" as="sourcePoint" />
            <mxPoint x="406.25" y="114" as="targetPoint" />
          </mxGeometry>
        </mxCell>
        <mxCell id="a5vDsfFaX1BTuz3lG2Y1-45" value="" style="endArrow=classic;html=1;" edge="1" parent="a5vDsfFaX1BTuz3lG2Y1-1">
          <mxGeometry x="399.25" y="-4" width="50" height="50" as="geometry">
            <mxPoint x="457.25" y="97" as="sourcePoint" />
            <mxPoint x="457.25" y="114" as="targetPoint" />
          </mxGeometry>
        </mxCell>
        <mxCell id="a5vDsfFaX1BTuz3lG2Y1-46" value="Time" style="ellipse;whiteSpace=wrap;html=1;" vertex="1" parent="a5vDsfFaX1BTuz3lG2Y1-1">
          <mxGeometry x="377" y="116" width="50" height="30" as="geometry" />
        </mxCell>
        <mxCell id="a5vDsfFaX1BTuz3lG2Y1-47" value="Location" style="ellipse;whiteSpace=wrap;html=1;" vertex="1" parent="a5vDsfFaX1BTuz3lG2Y1-1">
          <mxGeometry x="432" y="116" width="50" height="30" as="geometry" />
        </mxCell>
        <mxCell id="a5vDsfFaX1BTuz3lG2Y1-48" value="" style="endArrow=classic;html=1;" edge="1" parent="a5vDsfFaX1BTuz3lG2Y1-1">
          <mxGeometry x="343.5" y="45" width="50" height="50" as="geometry">
            <mxPoint x="401.5" y="146" as="sourcePoint" />
            <mxPoint x="401.5" y="163" as="targetPoint" />
          </mxGeometry>
        </mxCell>
        <mxCell id="a5vDsfFaX1BTuz3lG2Y1-49" value="" style="endArrow=classic;html=1;" edge="1" parent="a5vDsfFaX1BTuz3lG2Y1-1">
          <mxGeometry x="398.5" y="45" width="50" height="50" as="geometry">
            <mxPoint x="456.5" y="146" as="sourcePoint" />
            <mxPoint x="456.5" y="163" as="targetPoint" />
          </mxGeometry>
        </mxCell>
        <mxCell id="a5vDsfFaX1BTuz3lG2Y1-50" value="" style="shape=line;html=1;strokeWidth=6;rotation=0;" vertex="1" parent="a5vDsfFaX1BTuz3lG2Y1-1">
          <mxGeometry x="392" y="160" width="67.25" height="10" as="geometry" />
        </mxCell>
        <mxCell id="a5vDsfFaX1BTuz3lG2Y1-51" value="" style="endArrow=classic;html=1;exitX=0.451;exitY=0.86;exitDx=0;exitDy=0;exitPerimeter=0;entryX=0.736;entryY=0.324;entryDx=0;entryDy=0;entryPerimeter=0;" edge="1" parent="a5vDsfFaX1BTuz3lG2Y1-1" target="a5vDsfFaX1BTuz3lG2Y1-55">
          <mxGeometry width="50" height="50" relative="1" as="geometry">
            <mxPoint x="425.05400000000003" y="163.9999999999999" as="sourcePoint" />
            <mxPoint x="427.45" y="676.2000488281251" as="targetPoint" />
          </mxGeometry>
        </mxCell>
        <mxCell id="a5vDsfFaX1BTuz3lG2Y1-52" value="" style="endArrow=classic;html=1;" edge="1" parent="a5vDsfFaX1BTuz3lG2Y1-1">
          <mxGeometry x="477.25" y="-34" width="50" height="50" as="geometry">
            <mxPoint x="535.25" y="67" as="sourcePoint" />
            <mxPoint x="535.25" y="84" as="targetPoint" />
          </mxGeometry>
        </mxCell>
        <mxCell id="a5vDsfFaX1BTuz3lG2Y1-53" value="Update Account" style="ellipse;whiteSpace=wrap;html=1;" vertex="1" parent="a5vDsfFaX1BTuz3lG2Y1-1">
          <mxGeometry x="499.5" y="83" width="72.5" height="40" as="geometry" />
        </mxCell>
        <mxCell id="a5vDsfFaX1BTuz3lG2Y1-54" value="" style="endArrow=classic;html=1;exitX=0.5;exitY=1;exitDx=0;exitDy=0;entryX=0.939;entryY=0.324;entryDx=0;entryDy=0;entryPerimeter=0;" edge="1" parent="a5vDsfFaX1BTuz3lG2Y1-1" source="a5vDsfFaX1BTuz3lG2Y1-53" target="a5vDsfFaX1BTuz3lG2Y1-55">
          <mxGeometry width="50" height="50" relative="1" as="geometry">
            <mxPoint x="372" y="130" as="sourcePoint" />
            <mxPoint x="536" y="681.60009765625" as="targetPoint" />
          </mxGeometry>
        </mxCell>
        <mxCell id="a5vDsfFaX1BTuz3lG2Y1-55" value="" style="shape=line;html=1;strokeWidth=6;rotation=0;" vertex="1" parent="a5vDsfFaX1BTuz3lG2Y1-1">
          <mxGeometry x="12" y="280" width="560" height="10" as="geometry" />
        </mxCell>
        <mxCell id="a5vDsfFaX1BTuz3lG2Y1-56" value="" style="endArrow=classic;html=1;" edge="1" parent="a5vDsfFaX1BTuz3lG2Y1-1">
          <mxGeometry width="50" height="50" relative="1" as="geometry">
            <mxPoint x="292" y="288" as="sourcePoint" />
            <mxPoint x="292" y="308" as="targetPoint" />
          </mxGeometry>
        </mxCell>
        <mxCell id="a5vDsfFaX1BTuz3lG2Y1-57" value="Logout" style="ellipse;whiteSpace=wrap;html=1;" vertex="1" parent="a5vDsfFaX1BTuz3lG2Y1-1">
          <mxGeometry x="263.5" y="310" width="60" height="30" as="geometry" />
        </mxCell>
        <mxCell id="a5vDsfFaX1BTuz3lG2Y1-58" value="" style="endArrow=classic;html=1;" edge="1" parent="a5vDsfFaX1BTuz3lG2Y1-1">
          <mxGeometry width="50" height="50" relative="1" as="geometry">
            <mxPoint x="291.41" y="339.9999999999998" as="sourcePoint" />
            <mxPoint x="291.41" y="359.9999999999998" as="targetPoint" />
          </mxGeometry>
        </mxCell>
      </root>
    </mxGraphModel>
  </diagram>
</mxfile>
